inDegrees=yes
name=ik_S47_A13_T02
DataType=double
version=3
OpenSimVersion=4.3-2021-08-27-4bc7ad9
endheader
time	pelvis_tilt	pelvis_list	pelvis_rotation	pelvis_tx	pelvis_ty	pelvis_tz	hip_flexion_r	hip_adduction_r	hip_rotation_r	knee_angle_r	knee_angle_r_beta	ankle_angle_r	subtalar_angle_r	mtp_angle_r	hip_flexion_l	hip_adduction_l	hip_rotation_l	knee_angle_l	knee_angle_l_beta	ankle_angle_l	subtalar_angle_l	mtp_angle_l	lumbar_extension	lumbar_bending	lumbar_rotation	arm_flex_r	arm_add_r	arm_rot_r	elbow_flex_r	pro_sup_r	wrist_flex_r	wrist_dev_r	arm_flex_l	arm_add_l	arm_rot_l	elbow_flex_l	pro_sup_l	wrist_flex_l	wrist_dev_l
5.959999999999961	-0.5355931912328861	0.2541743717908936	25.93814993023391	0	0.9399999999999999	0	43.96483906054699	-11.05077601477988	-10.99761625245584	51.02319901731307	0.8905228177524482	0	0	0	43.96483906054699	-11.05077601477988	-10.99761625245584	51.02319901731307	0.8905228177524482	0	0	0	-0.381807971837814	1.615093252311178	6.27193353180112	99.02238997649191	9.175544457438246	46.61588382193732	39.27637608534536	78.06693510129432	0	0	106.5127152892428	13.11140896775989	27.30616875421538	1.439580439991981	68.06821836139578	0	0
5.97999999999996	-0.5631175478743479	0.2209390107584291	26.00724385885752	0	0.9399999999999999	0	43.96523892922107	-11.04938596116856	-10.996764206498	51.024251180321	0.8905411814612044	0	0	0	43.96523892922107	-11.04938596116856	-10.996764206498	51.024251180321	0.8905411814612044	0	0	0	-0.4206333417507822	1.597269280224886	6.223575790115334	99.23008662837451	9.610843597618505	46.14650735859264	38.3511733454127	79.12382483402443	0	0	106.6153843266835	13.16954111510152	26.86935141799732	1.434493775797328	67.22823539722066	0	0
5.99999999999996	-0.5753881461153869	0.1931788802607713	26.08890539255422	0	0.9399999999999999	0	43.96581612744477	-11.04736188200234	-10.99552691753444	51.02575615561104	0.8905674482351768	0	0	0	43.96581612744477	-11.04736188200234	-10.99552691753444	51.02575615561104	0.8905674482351768	0	0	0	-0.4435039761979295	1.577805151546623	6.162532657061173	99.38640096005551	9.969286902729545	45.84432387738872	37.47514742062964	79.51621212387509	0	0	106.6384057467863	13.21086205659551	26.6313107150203	1.420651645536774	66.03010574204313	0	0
6.01999999999996	-0.6068565436621437	0.1927159352449	26.23524500807395	0	0.9399999999999999	0	43.96620896488155	-11.04602155950987	-10.99469981160396	51.02680563190782	0.8905857650519772	0	0	0	43.96620896488155	-11.04602155950987	-10.99469981160396	51.02680563190782	0.8905857650519772	0	0	0	-0.4712768623901123	1.590783213492933	6.0828868349033	99.5113788017147	10.21115168995082	45.67510558350181	36.71477651609172	79.89188287321203	0	0	106.6758736481199	13.31297044151327	26.59169056468143	1.387348001937345	64.45985536803529	0	0
6.039999999999959	-0.6332544369258771	0.1808003864271306	26.38014037687275	0	0.9399999999999999	0	43.96658467082626	-11.04471965096635	-10.99390049590048	51.02779445912793	0.8906030233427014	0	0	0	43.96658467082626	-11.04471965096635	-10.99390049590048	51.02779445912793	0.8906030233427014	0	0	0	-0.4995110801779938	1.591718068652296	5.995718545342373	99.61221267353245	10.44893846007532	45.41514418802104	36.30911891093142	80.50402998573178	0	0	106.6815021154419	13.34056559307921	26.49559761438502	1.414329152062737	63.22458038336121	0	0
6.059999999999959	-0.6683152544893523	0.164860850721039	26.38214375743182	0	0.9399999999999999	0	43.96681597840211	-11.04394110690937	-10.99341769622518	51.02841913424352	0.8906139259802238	0	0	0	43.96681597840211	-11.04394110690937	-10.99341769622518	51.02841913424352	0.8906139259802238	0	0	0	-0.5381869357917284	1.592338625153568	6.056069154636083	99.71452846566673	10.36729748102984	45.45424235442736	36.01560432620514	81.23392161443407	0	0	106.7319841379034	13.30622605247791	26.42259352302198	1.5058008009035	63.24365993879911	0	0
6.079999999999958	-0.6756711570382204	0.1697357703743733	26.41876244423799	0	0.9399999999999999	0	43.96710027214297	-11.04294455228794	-10.9928080588401	51.02915838271409	0.8906268283000256	0	0	0	43.96710027214297	-11.04294455228794	-10.9928080588401	51.02915838271409	0.8906268283000256	0	0	0	-0.5424207982510495	1.600000279480792	6.010769610039817	99.55995893554933	10.63389492837384	45.41116547005801	35.419437682863	81.21947674731895	0	0	106.6989523956454	13.23108213610904	26.2463449919807	1.439263618814401	62.79426128625991	0	0
